<svg width="56" height="56" viewBox="0 0 56 56" fill="none" xmlns="http://www.w3.org/2000/svg">
<circle cx="28" cy="28" r="27.5" fill="#E5F1FF" stroke="#03A000"/>
<g clip-path="url(#clip0_115_186)">
<path d="M43.058 17.923C41.1185 17.1095 39.1775 16.8 37.2375 16.8C31.079 16.7995 24.921 19.917 18.7625 19.917C17.218 19.917 15.6745 19.721 14.13 19.231C13.9565 19.176 13.7825 19.15 13.6125 19.15C12.752 19.15 12 19.816 12 20.7405V36.6035C12 37.235 12.3615 37.8335 12.942 38.0765C14.8815 38.8905 16.8225 39.2 18.7625 39.2C24.921 39.2 31.0795 36.0825 37.238 36.0825C38.7825 36.0825 40.326 36.2785 41.8705 36.7685C42.044 36.8235 42.218 36.8495 42.388 36.8495C43.2485 36.8495 44.0005 36.1835 44.0005 35.259V19.3965C44 18.7645 43.6385 18.1665 43.058 17.923ZM14.4 21.811C15.406 22.063 16.456 22.1895 17.536 22.2575C17.242 23.727 15.95 24.8345 14.4 24.8345V21.811ZM14.4 36.061V33.672C16.1185 33.672 17.509 35.0355 17.5855 36.742C16.459 36.6515 15.406 36.4265 14.4 36.061ZM28 32.8C25.7905 32.8 24 30.6505 24 28C24 25.349 25.791 23.2 28 23.2C30.209 23.2 32 25.349 32 28C32 30.6515 30.2085 32.8 28 32.8ZM41.6 34.189C40.724 33.9695 39.8145 33.8465 38.884 33.767C39.1775 32.463 40.259 31.473 41.6 31.303V34.189ZM41.6 22.3835C40.0555 22.188 38.857 20.8985 38.8095 19.306C39.7865 19.4145 40.714 19.6175 41.6 19.939V22.3835Z" fill="#03A000"/>
</g>
<defs>
<clipPath id="clip0_115_186">
<rect width="32" height="32" fill="white" transform="translate(12 12)"/>
</clipPath>
</defs>
</svg>
